<svg data-v-423bf9ae="" xmlns="http://www.w3.org/2000/svg" viewBox="0 0 390.4117067814467 60" class="font"><!----><!----><!----><g data-v-423bf9ae="" id="1f9dbf1b-7261-45a7-9c9a-0272fbb19d66" fill="white" transform="matrix(5.882352501188353,0,0,5.882352501188353,-7.176468479319283,-33.411761673814276)"><path d="M2.31 12.07L2.31 15.68L1.22 15.68L1.22 5.88L2.31 5.88L2.31 10.00L2.48 10.00L2.48 10.00Q2.80 9.32 3.38 8.93L3.38 8.93L3.38 8.93Q3.96 8.54 4.80 8.54L4.80 8.54L4.80 8.54Q5.94 8.54 6.64 9.29L6.64 9.29L6.64 9.29Q7.35 10.04 7.35 11.54L7.35 11.54L7.35 15.68L6.26 15.68L6.26 11.76L6.26 11.76Q6.26 10.67 5.77 10.12L5.77 10.12L5.77 10.12Q5.28 9.58 4.44 9.58L4.44 9.58L4.44 9.58Q3.44 9.58 2.88 10.25L2.88 10.25L2.88 10.25Q2.31 10.93 2.31 12.07L2.31 12.07ZM16.88 8.74L15.79 15.68L13.78 15.68L12.94 9.24L12.77 9.24L11.93 15.68L9.91 15.68L8.82 8.74L9.94 8.74L10.86 15.18L11.03 15.18L11.84 8.74L13.86 8.74L14.67 15.18L14.84 15.18L15.76 8.74L16.88 8.74ZM18.13 14.59L20.90 14.59L20.90 6.40L20.73 6.40L19.12 10.08L17.96 10.08L17.96 10.00L19.80 5.88L22.08 5.88L22.08 14.59L24.85 14.59L24.85 15.68L18.13 15.68L18.13 14.59ZM26.54 11.87L26.54 9.69L26.54 9.69Q26.54 7.78 27.45 6.73L27.45 6.73L27.45 6.73Q28.36 5.68 29.99 5.68L29.99 5.68L29.99 5.68Q31.61 5.68 32.52 6.73L32.52 6.73L32.52 6.73Q33.43 7.78 33.43 9.69L33.43 9.69L33.43 11.87L33.43 11.87Q33.43 13.83 32.52 14.85L32.52 14.85L32.52 14.85Q31.61 15.88 29.99 15.88L29.99 15.88L29.99 15.88Q28.36 15.88 27.45 14.85L27.45 14.85L27.45 14.85Q26.54 13.83 26.54 11.87L26.54 11.87ZM29.99 14.81L29.99 14.81L29.99 14.81Q31.12 14.81 31.69 14.02L31.69 14.02L31.69 14.02Q32.26 13.23 32.26 11.79L32.26 11.79L32.26 9.77L32.26 9.77Q32.26 9.10 32.12 8.55L32.12 8.55L32.12 8.55Q31.98 7.99 31.69 7.59L31.69 7.59L31.69 7.59Q31.40 7.20 30.98 6.97L30.98 6.97L30.98 6.97Q30.55 6.75 29.99 6.75L29.99 6.75L29.99 6.75Q29.41 6.75 28.99 6.97L28.99 6.97L28.99 6.97Q28.57 7.20 28.29 7.59L28.29 7.59L28.29 7.59Q28 7.99 27.86 8.55L27.86 8.55L27.86 8.55Q27.72 9.10 27.72 9.77L27.72 9.77L27.72 11.79L27.72 11.79Q27.72 13.23 28.29 14.02L28.29 14.02L28.29 14.02Q28.85 14.81 29.99 14.81ZM29.09 10.78L29.09 10.78L29.09 10.78Q29.09 10.42 29.36 10.15L29.36 10.15L29.36 10.15Q29.62 9.88 29.99 9.88L29.99 9.88L29.99 9.88Q30.35 9.88 30.62 10.15L30.62 10.15L30.62 10.15Q30.88 10.42 30.88 10.78L30.88 10.78L30.88 10.78Q30.88 11.14 30.62 11.41L30.62 11.41L30.62 11.41Q30.35 11.68 29.99 11.68L29.99 11.68L29.99 11.68Q29.62 11.68 29.36 11.41L29.36 11.41L29.36 11.41Q29.09 11.14 29.09 10.78ZM35.27 14.59L38.04 14.59L38.04 6.40L37.87 6.40L36.26 10.08L35.10 10.08L35.10 10.00L36.93 5.88L39.21 5.88L39.21 14.59L41.99 14.59L41.99 15.68L35.27 15.68L35.27 14.59ZM46.14 14.90L46.14 14.90L46.14 14.90Q46.14 14.49 46.43 14.20L46.43 14.20L46.43 14.20Q46.72 13.92 47.12 13.92L47.12 13.92L47.12 13.92Q47.53 13.92 47.82 14.20L47.82 14.20L47.82 14.20Q48.10 14.49 48.10 14.90L48.10 14.90L48.10 14.90Q48.10 15.30 47.82 15.59L47.82 15.59L47.82 15.59Q47.53 15.88 47.12 15.88L47.12 15.88L47.12 15.88Q46.72 15.88 46.43 15.59L46.43 15.59L46.43 15.59Q46.14 15.30 46.14 14.90ZM59.30 10.33L59.30 15.68L58.21 15.68L58.21 10.70L58.21 10.70Q58.21 10.21 57.99 9.89L57.99 9.89L57.99 9.89Q57.76 9.58 57.27 9.58L57.27 9.58L57.27 9.58Q56.81 9.58 56.52 9.92L56.52 9.92L56.52 9.92Q56.24 10.26 56.24 10.98L56.24 10.98L56.24 15.68L55.15 15.68L55.15 10.64L55.15 10.64Q55.15 10.18 54.89 9.88L54.89 9.88L54.89 9.88Q54.64 9.58 54.22 9.58L54.22 9.58L54.22 9.58Q53.72 9.58 53.44 9.94L53.44 9.94L53.44 9.94Q53.17 10.30 53.17 10.89L53.17 10.89L53.17 15.68L52.08 15.68L52.08 8.74L53.17 8.74L53.17 9.49L53.34 9.49L53.34 9.49Q53.52 9.00 53.87 8.77L53.87 8.77L53.87 8.77Q54.22 8.54 54.70 8.54L54.70 8.54L54.70 8.54Q55.20 8.54 55.53 8.81L55.53 8.81L55.53 8.81Q55.86 9.07 55.99 9.49L55.99 9.49L56.15 9.49L56.15 9.49Q56.63 8.54 57.67 8.54L57.67 8.54L57.67 8.54Q58.45 8.54 58.88 9.04L58.88 9.04L58.88 9.04Q59.30 9.53 59.30 10.33L59.30 10.33ZM67.59 12.54L61.99 12.54L61.99 12.54Q62.03 13.58 62.64 14.21L62.64 14.21L62.64 14.21Q63.24 14.84 64.32 14.84L64.32 14.84L64.32 14.84Q64.81 14.84 65.17 14.73L65.17 14.73L65.17 14.73Q65.53 14.62 65.79 14.42L65.79 14.42L65.79 14.42Q66.05 14.22 66.21 13.96L66.21 13.96L66.21 13.96Q66.37 13.71 66.47 13.41L66.47 13.41L67.51 13.69L67.51 13.69Q67.21 14.66 66.42 15.27L66.42 15.27L66.42 15.27Q65.63 15.88 64.29 15.88L64.29 15.88L64.29 15.88Q63.55 15.88 62.92 15.62L62.92 15.62L62.92 15.62Q62.30 15.36 61.85 14.88L61.85 14.88L61.85 14.88Q61.40 14.41 61.15 13.75L61.15 13.75L61.15 13.75Q60.90 13.09 60.90 12.29L60.90 12.29L60.90 11.96L60.90 11.96Q60.90 11.23 61.16 10.60L61.16 10.60L61.16 10.60Q61.42 9.97 61.88 9.51L61.88 9.51L61.88 9.51Q62.34 9.06 62.96 8.80L62.96 8.80L62.96 8.80Q63.59 8.54 64.32 8.54L64.32 8.54L64.32 8.54Q65.17 8.54 65.79 8.86L65.79 8.86L65.79 8.86Q66.42 9.17 66.81 9.63L66.81 9.63L66.81 9.63Q67.21 10.09 67.40 10.64L67.40 10.64L67.40 10.64Q67.59 11.19 67.59 11.65L67.59 11.65L67.59 12.54ZM64.32 9.58L64.32 9.58L64.32 9.58Q63.85 9.58 63.45 9.72L63.45 9.72L63.45 9.72Q63.06 9.87 62.75 10.14L62.75 10.14L62.75 10.14Q62.45 10.40 62.26 10.76L62.26 10.76L62.26 10.76Q62.08 11.12 62.02 11.54L62.02 11.54L66.50 11.54L66.50 11.54Q66.47 11.09 66.28 10.72L66.28 10.72L66.28 10.72Q66.09 10.36 65.79 10.11L65.79 10.11L65.79 10.11Q65.49 9.86 65.11 9.72L65.11 9.72L65.11 9.72Q64.72 9.58 64.32 9.58Z"></path></g><!----><!----></svg>