<svg data-v-fde0c5aa="" xmlns="http://www.w3.org/2000/svg" viewBox="0 0 300 300" class="iconAboveSlogan"><!----><defs data-v-fde0c5aa=""><linearGradient data-v-fde0c5aa="" gradientTransform="rotate(25)" id="f4c09a32-5227-400b-8aa5-56c742b03efe" x1="0%" y1="0%" x2="100%" y2="0%"><stop data-v-fde0c5aa="" offset="0%" stop-color="#08C7D6" stop-opacity="1"></stop><stop data-v-fde0c5aa="" offset="100%" stop-color="#02023E" stop-opacity="1"></stop></linearGradient></defs><rect data-v-fde0c5aa="" fill="url(#f4c09a32-5227-400b-8aa5-56c742b03efe)" x="0" y="0" width="300px" height="300px" class="logo-background-square"></rect><defs data-v-fde0c5aa=""><!----></defs><g data-v-fde0c5aa="" id="c517a4f4-42e6-4fee-be96-3b656db1e550" fill="#ffffff" transform="matrix(3.9174328631624253,0,0,3.9174328631624253,15.220731794863188,138.5083548877479)"><path d="M2.31 12.07L2.31 15.68L1.22 15.68L1.22 5.88L2.31 5.88L2.31 10.00L2.48 10.00L2.48 10.00Q2.80 9.32 3.38 8.93L3.38 8.93L3.38 8.93Q3.96 8.54 4.80 8.54L4.80 8.54L4.80 8.54Q5.94 8.54 6.64 9.29L6.64 9.29L6.64 9.29Q7.35 10.04 7.35 11.54L7.35 11.54L7.35 15.68L6.26 15.68L6.26 11.76L6.26 11.76Q6.26 10.67 5.77 10.12L5.77 10.12L5.77 10.12Q5.28 9.58 4.44 9.58L4.44 9.58L4.44 9.58Q3.44 9.58 2.88 10.25L2.88 10.25L2.88 10.25Q2.31 10.93 2.31 12.07L2.31 12.07ZM16.88 8.74L15.79 15.68L13.78 15.68L12.94 9.24L12.77 9.24L11.93 15.68L9.91 15.68L8.82 8.74L9.94 8.74L10.86 15.18L11.03 15.18L11.84 8.74L13.86 8.74L14.67 15.18L14.84 15.18L15.76 8.74L16.88 8.74ZM18.13 14.59L20.90 14.59L20.90 6.40L20.73 6.40L19.12 10.08L17.96 10.08L17.96 10.00L19.80 5.88L22.08 5.88L22.08 14.59L24.85 14.59L24.85 15.68L18.13 15.68L18.13 14.59ZM26.54 11.87L26.54 9.69L26.54 9.69Q26.54 7.78 27.45 6.73L27.45 6.73L27.45 6.73Q28.36 5.68 29.99 5.68L29.99 5.68L29.99 5.68Q31.61 5.68 32.52 6.73L32.52 6.73L32.52 6.73Q33.43 7.78 33.43 9.69L33.43 9.69L33.43 11.87L33.43 11.87Q33.43 13.83 32.52 14.85L32.52 14.85L32.52 14.85Q31.61 15.88 29.99 15.88L29.99 15.88L29.99 15.88Q28.36 15.88 27.45 14.85L27.45 14.85L27.45 14.85Q26.54 13.83 26.54 11.87L26.54 11.87ZM29.99 14.81L29.99 14.81L29.99 14.81Q31.12 14.81 31.69 14.02L31.69 14.02L31.69 14.02Q32.26 13.23 32.26 11.79L32.26 11.79L32.26 9.77L32.26 9.77Q32.26 9.10 32.12 8.55L32.12 8.55L32.12 8.55Q31.98 7.99 31.69 7.59L31.69 7.59L31.69 7.59Q31.40 7.20 30.98 6.97L30.98 6.97L30.98 6.97Q30.55 6.75 29.99 6.75L29.99 6.75L29.99 6.75Q29.41 6.75 28.99 6.97L28.99 6.97L28.99 6.97Q28.57 7.20 28.29 7.59L28.29 7.59L28.29 7.59Q28 7.99 27.86 8.55L27.86 8.55L27.86 8.55Q27.72 9.10 27.72 9.77L27.72 9.77L27.72 11.79L27.72 11.79Q27.72 13.23 28.29 14.02L28.29 14.02L28.29 14.02Q28.85 14.81 29.99 14.81ZM29.09 10.78L29.09 10.78L29.09 10.78Q29.09 10.42 29.36 10.15L29.36 10.15L29.36 10.15Q29.62 9.88 29.99 9.88L29.99 9.88L29.99 9.88Q30.35 9.88 30.62 10.15L30.62 10.15L30.62 10.15Q30.88 10.42 30.88 10.78L30.88 10.78L30.88 10.78Q30.88 11.14 30.62 11.41L30.62 11.41L30.62 11.41Q30.35 11.68 29.99 11.68L29.99 11.68L29.99 11.68Q29.62 11.68 29.36 11.41L29.36 11.41L29.36 11.41Q29.09 11.14 29.09 10.78ZM35.27 14.59L38.04 14.59L38.04 6.40L37.87 6.40L36.26 10.08L35.10 10.08L35.10 10.00L36.93 5.88L39.21 5.88L39.21 14.59L41.99 14.59L41.99 15.68L35.27 15.68L35.27 14.59ZM46.14 14.90L46.14 14.90L46.14 14.90Q46.14 14.49 46.43 14.20L46.43 14.20L46.43 14.20Q46.72 13.92 47.12 13.92L47.12 13.92L47.12 13.92Q47.53 13.92 47.82 14.20L47.82 14.20L47.82 14.20Q48.10 14.49 48.10 14.90L48.10 14.90L48.10 14.90Q48.10 15.30 47.82 15.59L47.82 15.59L47.82 15.59Q47.53 15.88 47.12 15.88L47.12 15.88L47.12 15.88Q46.72 15.88 46.43 15.59L46.43 15.59L46.43 15.59Q46.14 15.30 46.14 14.90ZM59.30 10.33L59.30 15.68L58.21 15.68L58.21 10.70L58.21 10.70Q58.21 10.21 57.99 9.89L57.99 9.89L57.99 9.89Q57.76 9.58 57.27 9.58L57.27 9.58L57.27 9.58Q56.81 9.58 56.52 9.92L56.52 9.92L56.52 9.92Q56.24 10.26 56.24 10.98L56.24 10.98L56.24 15.68L55.15 15.68L55.15 10.64L55.15 10.64Q55.15 10.18 54.89 9.88L54.89 9.88L54.89 9.88Q54.64 9.58 54.22 9.58L54.22 9.58L54.22 9.58Q53.72 9.58 53.44 9.94L53.44 9.94L53.44 9.94Q53.17 10.30 53.17 10.89L53.17 10.89L53.17 15.68L52.08 15.68L52.08 8.74L53.17 8.74L53.17 9.49L53.34 9.49L53.34 9.49Q53.52 9.00 53.87 8.77L53.87 8.77L53.87 8.77Q54.22 8.54 54.70 8.54L54.70 8.54L54.70 8.54Q55.20 8.54 55.53 8.81L55.53 8.81L55.53 8.81Q55.86 9.07 55.99 9.49L55.99 9.49L56.15 9.49L56.15 9.49Q56.63 8.54 57.67 8.54L57.67 8.54L57.67 8.54Q58.45 8.54 58.88 9.04L58.88 9.04L58.88 9.04Q59.30 9.53 59.30 10.33L59.30 10.33ZM67.59 12.54L61.99 12.54L61.99 12.54Q62.03 13.58 62.64 14.21L62.64 14.21L62.64 14.21Q63.24 14.84 64.32 14.84L64.32 14.84L64.32 14.84Q64.81 14.84 65.17 14.73L65.17 14.73L65.17 14.73Q65.53 14.62 65.79 14.42L65.79 14.42L65.79 14.42Q66.05 14.22 66.21 13.96L66.21 13.96L66.21 13.96Q66.37 13.71 66.47 13.41L66.47 13.41L67.51 13.69L67.51 13.69Q67.21 14.66 66.42 15.27L66.42 15.27L66.42 15.27Q65.63 15.88 64.29 15.88L64.29 15.88L64.29 15.88Q63.55 15.88 62.92 15.62L62.92 15.62L62.92 15.62Q62.30 15.36 61.85 14.88L61.85 14.88L61.85 14.88Q61.40 14.41 61.15 13.75L61.15 13.75L61.15 13.75Q60.90 13.09 60.90 12.29L60.90 12.29L60.90 11.96L60.90 11.96Q60.90 11.23 61.16 10.60L61.16 10.60L61.16 10.60Q61.42 9.97 61.88 9.51L61.88 9.51L61.88 9.51Q62.34 9.06 62.96 8.80L62.96 8.80L62.96 8.80Q63.59 8.54 64.32 8.54L64.32 8.54L64.32 8.54Q65.17 8.54 65.79 8.86L65.79 8.86L65.79 8.86Q66.42 9.17 66.81 9.63L66.81 9.63L66.81 9.63Q67.21 10.09 67.40 10.64L67.40 10.64L67.40 10.64Q67.59 11.19 67.59 11.65L67.59 11.65L67.59 12.54ZM64.32 9.58L64.32 9.58L64.32 9.58Q63.85 9.58 63.45 9.72L63.45 9.72L63.45 9.72Q63.06 9.87 62.75 10.14L62.75 10.14L62.75 10.14Q62.45 10.40 62.26 10.76L62.26 10.76L62.26 10.76Q62.08 11.12 62.02 11.54L62.02 11.54L66.50 11.54L66.50 11.54Q66.47 11.09 66.28 10.72L66.28 10.72L66.28 10.72Q66.09 10.36 65.79 10.11L65.79 10.11L65.79 10.11Q65.49 9.86 65.11 9.72L65.11 9.72L65.11 9.72Q64.72 9.58 64.32 9.58Z"></path></g><defs data-v-fde0c5aa=""><!----></defs><g data-v-fde0c5aa="" id="7b4339bd-c529-436c-b847-2e285ca826cb" stroke="none" fill="#ffffff" transform="matrix(1.0146275713493205,0,0,1.0146275713493205,117.53191771682174,80.86709102573002)"><path d="M27.051 12.051l1.414 1.414C29.409 12.521 30.664 12 32 12s2.591.521 3.535 1.465l1.414-1.414C35.628 10.729 33.87 10 32 10s-3.628.729-4.949 2.051z"></path><path d="M39.778 9.222C37.701 7.145 34.938 6 32 6s-5.701 1.145-7.778 3.222l1.414 1.414C27.336 8.937 29.596 8 32 8s4.664.937 6.364 2.636l1.414-1.414z"></path><path d="M32 4c3.473 0 6.737 1.353 9.192 3.808l1.414-1.414C39.773 3.561 36.007 2 32 2s-7.773 1.561-10.606 4.394l1.414 1.414A12.914 12.914 0 0 1 32 4zM27.424 34c.619 0 1.122-.503 1.122-1.121v-.261L26.13 31.41l-.02.057a2.14 2.14 0 0 0 .521 2.205c.212.211.494.328.793.328z"></path><path d="M38.662 25.542a9.888 9.888 0 0 0-6.649-2.543c-.389 0-.78.021-1.175.066-4.354.489-7.923 3.829-8.678 8.122-.56 3.18.377 6.336 2.567 8.661l.273.29V45h2v-4h2v4h2v-4h2v4h2v-4h2v4h2v-4.862l.272-.289A9.959 9.959 0 0 0 42 33c0-2.843-1.217-5.562-3.338-7.458zm-8.116 7.337c0 1.721-1.4 3.121-3.122 3.121a3.103 3.103 0 0 1-2.206-.913 4.132 4.132 0 0 1-1.004-4.253l.748-2.244 5.584 2.792v1.497zm8.237 2.207a3.104 3.104 0 0 1-2.207.914 3.125 3.125 0 0 1-3.122-3.121v-1.497l5.584-2.792.748 2.244a4.132 4.132 0 0 1-1.003 4.252zM7 52c0 1.654 1.346 3 3 3h44c1.654 0 3-1.346 3-3v-1H7v1z"></path><path d="M54 17H35c0-1.654-1.346-3-3-3s-3 1.346-3 3H10c-1.654 0-3 1.346-3 3v29h50V20c0-1.654-1.346-3-3-3zm-22-1a1 1 0 1 1 0 2 1 1 0 0 1 0-2zM11 43H9v-4h2v4zm0-6H9v-4h2v4zm0-6H9v-4h2v4zm0-6H9v-4h2v4zm4 17h-2v-2h2v2zm0-6h-2v-2h2v2zm0-6h-2v-2h2v2zm0-6h-2v-2h2v2zm4 19h-2v-4h2v4zm0-6h-2v-4h2v4zm0-6h-2v-4h2v4zm0-6h-2v-4h2v4zm22 15.921V45c0 1.103-.897 2-2 2H25c-1.103 0-2-.897-2-2v-4.078c-2.433-2.758-3.456-6.407-2.811-10.08.908-5.161 5.195-9.176 10.426-9.765 3.417-.388 6.838.7 9.38 2.974A12.018 12.018 0 0 1 44 33c0 2.927-1.062 5.724-3 7.921zM47 43h-2v-4h2v4zm0-6h-2v-4h2v4zm0-6h-2v-4h2v4zm0-6h-2v-4h2v4zm4 17h-2v-2h2v2zm0-6h-2v-2h2v2zm0-6h-2v-2h2v2zm0-6h-2v-2h2v2zm4 19h-2v-4h2v4zm0-6h-2v-4h2v4zm0-6h-2v-4h2v4zm0-6h-2v-4h2v4z"></path><path d="M37.87 31.41l-2.416 1.208v.261a1.123 1.123 0 0 0 1.916.792c.58-.58.779-1.425.52-2.204l-.02-.057zM44 57H20v2h-4v2h32v-2h-4z"></path></g><defs data-v-fde0c5aa=""><!----></defs><g data-v-fde0c5aa="" id="cf2e87c0-8cff-42b0-ac8d-d9aa5ddd8176" fill="#ffffff" transform="matrix(0.6082345486201839,0,0,0.6082345486201839,51.77620085233852,209.22701639793706)"><path d="M1.19 2.80L1.19 12.60L1.61 12.60L1.61 2.80ZM17.99 2.80L17.99 11.79L10.50 2.45L10.50 12.60L10.92 12.60L10.92 3.61L18.41 12.95L18.41 2.80ZM30.59 12.03L26.81 2.80L26.32 2.80L30.59 12.95L34.86 2.80L34.37 2.80ZM43.75 7.48L48.09 7.48L48.09 7.08L43.75 7.08L43.75 3.21L48.37 3.21L48.37 2.80L43.33 2.80L43.33 12.60L48.37 12.60L48.37 12.19L43.75 12.19ZM64.68 2.80L64.68 11.79L57.19 2.45L57.19 12.60L57.61 12.60L57.61 3.61L65.10 12.95L65.10 2.80ZM73.08 3.21L75.60 3.21L75.60 12.60L76.02 12.60L76.02 3.21L78.54 3.21L78.54 2.80L73.08 2.80ZM86.38 12.36C86.38 12.64 86.52 12.78 86.80 12.78C87.08 12.78 87.22 12.64 87.22 12.36C87.22 12.08 87.08 11.94 86.80 11.94C86.52 11.94 86.38 12.08 86.38 12.36ZM108.36 2.80L108.36 12.60L110.74 12.60C112.16 12.60 113.29 12.15 114.15 11.25C115.00 10.35 115.43 9.17 115.43 7.70C115.43 6.23 115.00 5.05 114.15 4.15C113.29 3.25 112.16 2.80 110.74 2.80ZM108.78 3.22L110.74 3.22C112.04 3.22 113.07 3.63 113.83 4.46C114.60 5.28 114.98 6.37 114.98 7.70C114.98 9.09 114.60 10.18 113.85 10.98C113.09 11.78 112.06 12.18 110.74 12.18L108.78 12.18ZM124.81 7.48L129.15 7.48L129.15 7.08L124.81 7.08L124.81 3.21L129.43 3.21L129.43 2.80L124.39 2.80L124.39 12.60L129.43 12.60L129.43 12.19L124.81 12.19ZM139.23 7.64L143.15 7.64L143.15 7.24L139.23 7.24L139.23 3.21L143.29 3.21L143.29 2.80L138.81 2.80L138.81 12.60L139.23 12.60ZM152.81 7.48L157.15 7.48L157.15 7.08L152.81 7.08L152.81 3.21L157.43 3.21L157.43 2.80L152.39 2.80L152.39 12.60L157.43 12.60L157.43 12.19L152.81 12.19ZM173.74 2.80L173.74 11.79L166.25 2.45L166.25 12.60L166.67 12.60L166.67 3.61L174.16 12.95L174.16 2.80ZM183.12 2.80L183.12 12.60L185.50 12.60C186.92 12.60 188.05 12.15 188.91 11.25C189.76 10.35 190.19 9.17 190.19 7.70C190.19 6.23 189.76 5.05 188.91 4.15C188.05 3.25 186.92 2.80 185.50 2.80ZM183.54 3.22L185.50 3.22C186.80 3.22 187.83 3.63 188.59 4.46C189.36 5.28 189.74 6.37 189.74 7.70C189.74 9.09 189.36 10.18 188.61 10.98C187.85 11.78 186.82 12.18 185.50 12.18L183.54 12.18ZM199.57 12.36C199.57 12.64 199.71 12.78 199.99 12.78C200.27 12.78 200.41 12.64 200.41 12.36C200.41 12.08 200.27 11.94 199.99 11.94C199.71 11.94 199.57 12.08 199.57 12.36ZM221.97 7.48L226.31 7.48L226.31 7.08L221.97 7.08L221.97 3.21L226.59 3.21L226.59 2.80L221.55 2.80L221.55 12.60L226.59 12.60L226.59 12.19L221.97 12.19ZM235.97 2.80L235.97 12.60L240.45 12.60L240.45 12.19L236.39 12.19L236.39 2.80ZM249.41 7.48L253.75 7.48L253.75 7.08L249.41 7.08L249.41 3.21L254.03 3.21L254.03 2.80L248.99 2.80L248.99 12.60L254.03 12.60L254.03 12.19L249.41 12.19ZM266.63 12.03L262.85 2.80L262.36 2.80L266.63 12.95L270.90 2.80L270.41 2.80ZM281.47 2.45L277.20 12.60L277.69 12.60L278.96 9.52L283.98 9.52L285.25 12.60L285.74 12.60ZM281.47 3.50L283.78 9.07L279.16 9.07ZM292.11 3.21L294.63 3.21L294.63 12.60L295.05 12.60L295.05 3.21L297.57 3.21L297.57 2.80L292.11 2.80ZM306.53 7.48L310.87 7.48L310.87 7.08L306.53 7.08L306.53 3.21L311.15 3.21L311.15 2.80L306.11 2.80L306.11 12.60L311.15 12.60L311.15 12.19L306.53 12.19ZM320.95 12.36C320.95 12.64 321.09 12.78 321.37 12.78C321.65 12.78 321.79 12.64 321.79 12.36C321.79 12.08 321.65 11.94 321.37 11.94C321.09 11.94 320.95 12.08 320.95 12.36Z"></path></g></svg>